<?xml version="1.0" encoding="utf-8"?>
<!-- Generator: Adobe Illustrator 21.0.2, SVG Export Plug-In . SVG Version: 6.00 Build 0)  -->
<svg version="1.1" id="Calque_1" xmlns="http://www.w3.org/2000/svg" xmlns:xlink="http://www.w3.org/1999/xlink" x="0px" y="0px"
	 viewBox="0 0 841.9 188.1" style="enable-background:new 0 0 841.9 188.1;" xml:space="preserve">
<style type="text/css">
	.st0{fill:#FFFFFF;}
</style>
<g>
	<path class="st0" d="M204.4,107.4c11.1,4,20.3,5.7,25.8,5.7c5.3,0,9.1-1.2,9.1-4c0-4.1-7.3-4.5-14.7-6.1c-15-3.1-22.6-8-22.6-19.9
		c0-14.2,11-22.2,28.9-22.2c9.4,0,20.7,2.1,27.9,4.7l-4.1,16c-9.8-2.9-18.3-4.5-23.6-4.5c-4.9,0-7.7,1.6-7.7,4.5
		c0,4.1,5.7,4.3,14.4,6.1c13.8,2.8,22.4,7.2,22.4,19.9c0,14.7-11.6,21.9-29.4,21.9c-8.4,0-19.4-1.7-30.5-5.7L204.4,107.4z"/>
	<path class="st0" d="M334,89.9c0,5.2-0.3,7.3-1.2,12.3h-43.4c2.3,6,7.9,9.8,16.2,9.8c6,0,12.4-0.9,23.2-3.2l2.8,15.8
		c-9,2.9-17.9,5.1-26.5,5.1c-24.2,0-37.5-14.7-37.5-34.5c0-20.8,14.4-34.3,34.1-34.3C320.5,60.8,333.9,72.4,334,89.9z M288.6,89
		h26.7c-0.4-7.2-5.5-11.8-13-11.8C295,77.2,290,81.6,288.6,89z"/>
	<path class="st0" d="M362.3,127.6l-28.1-64.8h23.4l15.6,39l15.6-39h23.4l-28.1,64.8H362.3z"/>
	<path class="st0" d="M483.6,64v63.6h-21.8v-4.4c-5.1,4-10.8,6.4-18.7,6.4c-15.6,0-30.7-12.2-30.7-34.7
		c0.5-20.4,12.4-34.1,32.5-34.1C457.2,60.8,464,61.7,483.6,64z M433.4,95.2c0,9.8,6,16.4,14.6,16.4c4.5,0,9.1-1.6,13.9-5.6V78.9
		c-4.4-0.4-8.4-0.7-13.1-0.7C438.2,78.3,433.4,85.4,433.4,95.2z"/>
	<path class="st0" d="M567.4,85.8v41.8h-21.6V92.2c0-8.2-4.8-11.8-11-11.8c-3.5,0-7.8,0.3-13.2,0.7v46.5h-21.6V64
		c14.4-1.7,29.4-3.2,41-3.2C556.8,60.8,567.4,70.8,567.4,85.8z"/>
	<path class="st0" d="M652.3,94.9c0,21-15,35-36.7,35c-21.6,0-36.7-14-36.7-35c0-20.8,15.1-34.6,36.7-34.6
		C637.4,60.2,652.3,74,652.3,94.9z M631.6,94.9c0-9.6-6.7-16-16-16c-9.4,0-16,6.4-16,16c0,9.9,6.7,16.4,16,16.4
		C624.9,111.3,631.6,104.7,631.6,94.9z"/>
	<path class="st0" d="M680.5,127.6l-28.1-64.8h23.4l15.6,39l15.6-39h23.4l-28.1,64.8H680.5z"/>
	<path class="st0" d="M801.8,64v63.6H780v-4.4c-5.1,4-10.8,6.4-18.7,6.4c-15.6,0-30.7-12.2-30.7-34.7c0.5-20.4,12.4-34.1,32.5-34.1
		C775.4,60.8,782.2,61.7,801.8,64z M751.6,95.2c0,9.8,6,16.4,14.6,16.4c4.5,0,9.1-1.6,13.9-5.6V78.9c-4.4-0.4-8.4-0.7-13.1-0.7
		C756.4,78.3,751.6,85.4,751.6,95.2z"/>
</g>
<g>
	<path class="st0" d="M516.9,151.2v15.5h-4.6v-1.1c-1.3,1-2.8,1.6-4.7,1.6c-4.4,0-7.6-3.3-7.6-8.4c0.1-5,2.9-8.3,7.9-8.3
		C511.3,150.5,513.1,150.7,516.9,151.2z M504.5,158.9c0,2.6,1.5,4.5,3.8,4.5c1.3,0,2.6-0.4,4-1.5v-7.4c-1.1-0.1-2.2-0.2-3.7-0.2
		C505.6,154.3,504.5,156.3,504.5,158.9z"/>
	<path class="st0" d="M536.7,151.2v15.2c0,5.1-3.1,8.7-9.2,8.7c-1.7,0-3.8-0.5-5.6-1l0.7-3.7c1.8,0.3,3.5,0.6,4.8,0.6
		c3,0,4.6-1.6,4.8-4.4c-1.9,0.2-3.2,0.2-4.7,0.2c-4.4,0-7.6-3.3-7.6-8.2c0-5,2.9-8.3,7.9-8.3C532.6,150.5,534.7,151.1,536.7,151.2z
		 M524.3,158.9c0,2.3,1.5,4.2,3.8,4.2c1,0,2.1,0,4-0.3v-8.4c-1.1-0.1-2.2-0.2-3.7-0.2C525.4,154.3,524.3,156.3,524.3,158.9z"/>
	<path class="st0" d="M555.6,157.3c0,1.4-0.1,1.9-0.3,3.2h-11c0.6,1.7,2.1,2.7,4.5,2.7c1.3,0,2.9-0.3,5.6-0.8l0.6,3.6
		c-2.5,0.8-4.5,1.2-6.3,1.2c-6.1,0-9.1-3.7-9.1-8.4c0-5.1,3.6-8.4,8.3-8.4C552.3,150.4,555.6,153.2,555.6,157.3z M544.1,157.3h7.4
		c-0.1-1.9-1.6-3.3-3.6-3.3C545.9,154,544.6,155.3,544.1,157.3z"/>
	<path class="st0" d="M574.7,156.5v10.2h-4.6v-8.8c0-2-1.3-3.3-3.2-3.3c-1.2,0-2.4,0.1-3.7,0.2v11.9h-4.6v-15.5
		c2-0.3,6.3-0.8,9.4-0.8C572,150.5,574.7,152.9,574.7,156.5z"/>
	<path class="st0" d="M591.5,154.8c-1.8-0.4-3.3-0.7-4.4-0.7c-3.1,0-5,1.9-5,4.6c0,2.8,1.9,4.5,4.7,4.5c1.1,0,2.9-0.3,4.7-0.7
		l0.6,3.6c-1.8,0.6-3.9,1-5.7,1c-5.2,0-8.9-3.3-8.9-8.5c0-5.2,3.7-8.4,9.1-8.4c1.5,0,3.7,0.3,5.5,0.9L591.5,154.8z"/>
	<path class="st0" d="M609.7,157.3c0,1.4-0.1,1.9-0.3,3.2h-11c0.6,1.7,2.1,2.7,4.5,2.7c1.3,0,2.9-0.3,5.6-0.8l0.6,3.6
		c-2.5,0.8-4.5,1.2-6.3,1.2c-6,0-9.1-3.7-9.1-8.4c0-5.1,3.6-8.4,8.3-8.4C606.4,150.4,609.7,153.2,609.7,157.3z M598.2,157.3h7.4
		c-0.1-1.9-1.6-3.3-3.6-3.3C600,154,598.7,155.3,598.2,157.3z"/>
	<path class="st0" d="M633,154.8c-1.8-0.4-3.3-0.7-4.4-0.7c-3.1,0-5,1.9-5,4.6c0,2.8,1.9,4.5,4.7,4.5c1.1,0,2.9-0.3,4.7-0.7l0.6,3.6
		c-1.8,0.6-3.9,1-5.7,1c-5.2,0-8.9-3.3-8.9-8.5c0-5.2,3.7-8.4,9.1-8.4c1.5,0,3.7,0.3,5.5,0.9L633,154.8z"/>
	<path class="st0" d="M646.9,155c-1.9,0-3.8,0-5.6,0.2v11.6h-4.6v-15.2c2.9-0.5,7.1-1,10.2-1V155z"/>
	<path class="st0" d="M665.8,158.7c0,5.1-3.5,8.6-8.8,8.6c-5.3,0-8.9-3.5-8.9-8.6c0-5.1,3.6-8.5,8.9-8.5
		C662.2,150.3,665.8,153.7,665.8,158.7z M661.3,158.7c0-2.6-1.7-4.4-4.3-4.4c-2.6,0-4.4,1.7-4.4,4.4c0,2.7,1.8,4.5,4.4,4.5
		C659.5,163.2,661.3,161.4,661.3,158.7z"/>
	<path class="st0" d="M668.8,162.2c2.7,1,4.9,1.4,6.4,1.4c1.6,0,2.7-0.4,2.7-1.2c0-1.2-2.2-1.4-4.2-1.8c-3.6-0.7-5.4-2-5.4-4.7
		c0-3.3,2.7-5.3,6.9-5.3c2.4,0,5.1,0.6,6.6,1.2l-1,3.5c-2.2-0.6-4.4-1.1-5.8-1.1c-1.4,0-2.3,0.5-2.3,1.3c0,1.2,1.7,1.3,4,1.8
		c3.6,0.7,5.5,1.7,5.5,4.7c0,3.6-2.9,5.3-7.1,5.3c-1.8,0-4.5-0.3-7.1-1.4L668.8,162.2z"/>
	<path class="st0" d="M684.8,162.2c2.7,1,4.9,1.4,6.4,1.4c1.6,0,2.7-0.4,2.7-1.2c0-1.2-2.2-1.4-4.2-1.8c-3.6-0.7-5.4-2-5.4-4.7
		c0-3.3,2.7-5.3,6.9-5.3c2.4,0,5.1,0.6,6.6,1.2l-1,3.5c-2.2-0.6-4.4-1.1-5.8-1.1c-1.4,0-2.3,0.5-2.3,1.3c0,1.2,1.7,1.3,4,1.8
		c3.6,0.7,5.5,1.7,5.5,4.7c0,3.6-2.9,5.3-7.1,5.3c-1.8,0-4.5-0.3-7.1-1.4L684.8,162.2z"/>
	<path class="st0" d="M735.1,156.5v10.2h-4.6v-8.8c0-2.3-1.2-3.3-3.3-3.3c-1.1,0-2.1,0.1-3.2,0.3c0.1,0.6,0.2,1.1,0.2,1.7v10h-4.6
		v-8.8c0-2.3-1.1-3.3-3.3-3.3c-1,0-2,0.1-3,0.2v11.9h-4.6v-15.4c1.5-0.3,5.6-0.8,8.7-0.8c1.6,0,3.1,0.3,4.2,0.9
		c1.7-0.5,4.4-0.9,6.6-0.9C732.3,150.5,735.1,152.2,735.1,156.5z"/>
	<path class="st0" d="M754.1,157.3c0,1.4-0.1,1.9-0.3,3.2h-11c0.6,1.7,2.1,2.7,4.5,2.7c1.3,0,2.9-0.3,5.6-0.8l0.6,3.6
		c-2.5,0.8-4.5,1.2-6.3,1.2c-6,0-9.1-3.7-9.1-8.4c0-5.1,3.6-8.4,8.3-8.4C750.7,150.4,754,153.2,754.1,157.3z M742.6,157.3h7.4
		c-0.1-1.9-1.6-3.3-3.6-3.3C744.3,154,743,155.3,742.6,157.3z"/>
	<path class="st0" d="M773.1,166.5c-5,0.6-6.9,0.6-9.3,0.6c-4.2,0-7.6-2.9-7.6-8.4c0-4.9,2.7-8.2,8.2-8.2c1.2,0,3,0.2,4,0.4v-7.5
		h4.6V166.5z M760.7,158.7c0,2.8,1.3,4.7,4.2,4.7c0.5,0,1.8-0.1,3.6-0.3v-8.5c-1.1-0.2-2.5-0.4-3.4-0.4
		C761.7,154.3,760.7,156.2,760.7,158.7z"/>
	<path class="st0" d="M776.5,145.9c0-1.7,1.3-2.9,2.9-2.9c1.6,0,2.9,1.2,2.9,2.9c0,1.6-1.3,2.9-2.9,2.9
		C777.8,148.8,776.5,147.6,776.5,145.9z M781.7,166.7h-4.6V151h4.6V166.7z"/>
	<path class="st0" d="M801.5,151.2v15.5h-4.6v-1.1c-1.3,1-2.8,1.6-4.7,1.6c-4.4,0-7.6-3.3-7.6-8.4c0.1-5,2.9-8.3,7.9-8.3
		C795.8,150.5,797.7,150.7,801.5,151.2z M789.1,158.9c0,2.6,1.5,4.5,3.8,4.5c1.3,0,2.6-0.4,4-1.5v-7.4c-1.1-0.1-2.2-0.2-3.7-0.2
		C790.2,154.3,789.1,156.3,789.1,158.9z"/>
</g>
<g>
	<polygon class="st0" points="142.7,91.9 142.7,91.9 142.7,91.9 123.7,72.9 86.6,72.9 105.2,54.4 105.1,54.4 67.6,16.8 30,54.4 
		67.6,91.9 67.6,91.9 30,129.5 67.6,167.1 105.1,129.5 142.7,167.1 180.3,129.5 	"/>
	<g>
		<path class="st0" d="M101.7,66.9h24.9l21.6,21.6l33.6-33.6l-34-34.1L101.7,66.9z"/>
	</g>
</g>
</svg>
